solid auto-kdk-case
facet normal -0.5877876050088813 -0.8090152850211938 0
outer loop
vertex 66.29644775390625 -59.41401290893555 0
vertex 66.99886322021484 -59.92435073852539 -24.675039291381836
vertex 66.99886322021484 -59.92435073852539 0
endloop
endfacet
facet normal 0.002526363751743593 -0.9999968087380049 0
outer loop
vertex -75.5295181274414 -59.053043365478516 0
vertex -75.5295181274414 -59.053043365478516 -16.878101348876953
vertex 64.97895812988281 -58.69806671142578 -24.45604133605957
endloop
endfacet
facet normal -0.05386471477137241 0.08889429839977839 -0.994583529028412
outer loop
vertex 64.97895812988281 -58.69806671142578 -24.45604133605957
vertex -76.99943542480469 -57.58211135864258 -16.667024612426758
vertex -76.69789123535156 36.03438186645508 -8.316061973571777
endloop
endfacet
facet normal -0.7073507189228325 -0.7068627592675625 0
outer loop
vertex -75.5295181274414 -59.053043365478516 -16.878101348876953
vertex -76.99943542480469 -57.58211135864258 0
vertex -76.99943542480469 -57.58211135864258 -16.667024612426758
endloop
endfacet
facet normal -0.7073507189228325 -0.7068627592675626 0
outer loop
vertex -76.99943542480469 -57.58211135864258 0
vertex -75.5295181274414 -59.053043365478516 -16.878101348876953
vertex -75.5295181274414 -59.053043365478516 0
endloop
endfacet
facet normal -0.999994812431842 0.0032210416646032726 0
outer loop
vertex -76.69789123535156 36.03438186645508 0
vertex -76.99943542480469 -57.58211135864258 -16.667024612426758
vertex -76.99943542480469 -57.58211135864258 0
endloop
endfacet
facet normal 0 0 1
outer loop
vertex -76.99943542480469 -57.58211135864258 0
vertex -75.5295181274414 -59.053043365478516 0
vertex -76.69789123535156 36.03438186645508 0
endloop
endfacet
facet normal 0 0 1
outer loop
vertex -76.69789123535156 36.03438186645508 0
vertex -75.5295181274414 -59.053043365478516 0
vertex 64.97895812988281 -58.69806671142578 0
endloop
endfacet
facet normal -0.05386437917136931 0.08889479582730465 -0.9945835027443923
outer loop
vertex 64.97895812988281 -58.69806671142578 -24.45604133605957
vertex -76.69789123535156 36.03438186645508 -8.316061973571777
vertex -76.26961517333984 36.997032165527344 -8.253215789794922
endloop
endfacet
facet normal -0.05386479242918708 0.08889419120789421 -0.9945835344032472
outer loop
vertex 64.97895812988281 -58.69806671142578 -24.45604133605957
vertex -76.26961517333984 36.997032165527344 -8.253215789794922
vertex -73.90745544433594 39.140220642089844 -8.189591407775879
endloop
endfacet
facet normal -0.05386485690893335 0.08889410044377576 -0.9945835390234811
outer loop
vertex 64.97895812988281 -58.69806671142578 -24.45604133605957
vertex -73.90745544433594 39.140220642089844 -8.189591407775879
vertex -73.03471374511719 39.475807189941406 -8.206863403320312
endloop
endfacet
facet normal -0.053864707836847055 0.08889430827237471 -0.9945835285215753
outer loop
vertex 64.97895812988281 -58.69806671142578 -24.45604133605957
vertex -73.03471374511719 39.475807189941406 -8.206863403320312
vertex -54.828147888183594 39.42753219604492 -9.197210311889648
endloop
endfacet
facet normal -0.053864688844910934 0.08889434242225414 -0.9945835264978783
outer loop
vertex -54.828147888183594 39.42753219604492 -9.197210311889648
vertex -27.086763381958008 34.72457504272461 -11.119972229003906
vertex 66.5117416381836 -25.750898361206055 -21.594287872314453
endloop
endfacet
facet normal -0.9999948124318421 0.003221041664603273 0
outer loop
vertex -76.99943542480469 -57.58211135864258 -16.667024612426758
vertex -76.69789123535156 36.03438186645508 0
vertex -76.69789123535156 36.03438186645508 -8.316061973571777
endloop
endfacet
facet normal -0.05386472880385016 0.08889272699931615 -0.99458366871647
outer loop
vertex -54.828147888183594 39.42753219604492 -9.197210311889648
vertex -31.847412109375 39.366600036621094 -10.447248458862305
vertex -30.883956909179688 38.93830108642578 -10.537707328796387
endloop
endfacet
facet normal -0.05386478745311862 0.08889377915998836 -0.9945835715007995
outer loop
vertex -54.828147888183594 39.42753219604492 -9.197210311889648
vertex -28.36494255065918 35.601261138916016 -10.972392082214355
vertex -27.086763381958008 34.72457504272461 -11.119972229003906
endloop
endfacet
facet normal -0.05386468538295286 0.08889445945156972 -0.9945835162254644
outer loop
vertex -54.828147888183594 39.42753219604492 -9.197210311889648
vertex -28.74167251586914 36.57713317871094 -10.864767074584961
vertex -28.36494255065918 35.601261138916016 -10.972392082214355
endloop
endfacet
facet normal -0.05386468472498468 0.08889446519380048 -0.9945835157478663
outer loop
vertex -54.828147888183594 39.42753219604492 -9.197210311889648
vertex -30.883956909179688 38.93830108642578 -10.537707328796387
vertex -28.74167251586914 36.57713317871094 -10.864767074584961
endloop
endfacet
facet normal -0.9136594957095219 0.40648041268900315 0
outer loop
vertex -76.69789123535156 36.03438186645508 -8.316061973571777
vertex -76.26961517333984 36.997032165527344 0
vertex -76.26961517333984 36.997032165527344 -8.253215789794922
endloop
endfacet
facet normal -0.6719464441464051 0.7405997408850492 0
outer loop
vertex -76.26961517333984 36.997032165527344 -8.253215789794922
vertex -73.90745544433594 39.140220642089844 0
vertex -73.90745544433594 39.140220642089844 -8.189591407775879
endloop
endfacet
facet normal -0.3589014371430106 0.9333754648675321 0
outer loop
vertex -73.90745544433594 39.140220642089844 -8.189591407775879
vertex -73.03471374511719 39.475807189941406 0
vertex -73.03471374511719 39.475807189941406 -8.206863403320312
endloop
endfacet
facet normal -0.9136594957095218 0.40648041268900315 0
outer loop
vertex -76.26961517333984 36.997032165527344 0
vertex -76.69789123535156 36.03438186645508 -8.316061973571777
vertex -76.69789123535156 36.03438186645508 0
endloop
endfacet
facet normal -0.6719464441464051 0.7405997408850492 0
outer loop
vertex -73.90745544433594 39.140220642089844 0
vertex -76.26961517333984 36.997032165527344 -8.253215789794922
vertex -76.26961517333984 36.997032165527344 0
endloop
endfacet
facet normal -0.3589014371430106 0.9333754648675321 0
outer loop
vertex -73.90745544433594 39.140220642089844 -8.189591407775879
vertex -73.90745544433594 39.140220642089844 0
vertex -73.03471374511719 39.475807189941406 0
endloop
endfacet
facet normal 0.002651466959578566 0.9999964848553029 0
outer loop
vertex -73.03471374511719 39.475807189941406 0
vertex -31.847412109375 39.366600036621094 0
vertex -73.03471374511719 39.475807189941406 -8.206863403320312
endloop
endfacet
facet normal 0.002651497869022376 0.9999964847733348 -1.551244945283328e-7
outer loop
vertex -31.847412109375 39.366600036621094 0
vertex -54.828147888183594 39.42753219604492 -9.197210311889648
vertex -73.03471374511719 39.475807189941406 -8.206863403320312
endloop
endfacet
facet normal 0.0026514357864770807 0.9999964849379572 0
outer loop
vertex -54.828147888183594 39.42753219604492 -9.197210311889648
vertex -31.847412109375 39.366600036621094 0
vertex -31.847412109375 39.366600036621094 -10.447248458862305
endloop
endfacet
facet normal 0 0 1
outer loop
vertex -31.847412109375 39.366600036621094 0
vertex -73.03471374511719 39.475807189941406 0
vertex -28.74167251586914 36.57713317871094 0
endloop
endfacet
facet normal 0 0 1
outer loop
vertex -28.74167251586914 36.57713317871094 0
vertex -73.03471374511719 39.475807189941406 0
vertex -28.36494255065918 35.601261138916016 0
endloop
endfacet
facet normal 0 0 1
outer loop
vertex -28.36494255065918 35.601261138916016 0
vertex -73.03471374511719 39.475807189941406 0
vertex -27.086763381958008 34.72457504272461 0
endloop
endfacet
facet normal 0 0 1
outer loop
vertex -76.26961517333984 36.997032165527344 0
vertex -76.69789123535156 36.03438186645508 0
vertex 64.97895812988281 -58.69806671142578 0
endloop
endfacet
facet normal 0 0 1
outer loop
vertex -73.90745544433594 39.140220642089844 0
vertex -76.26961517333984 36.997032165527344 0
vertex 64.97895812988281 -58.69806671142578 0
endloop
endfacet
facet normal 0 0 1
outer loop
vertex -73.03471374511719 39.475807189941406 0
vertex -73.90745544433594 39.140220642089844 0
vertex 64.97895812988281 -58.69806671142578 0
endloop
endfacet
facet normal 0 0 1
outer loop
vertex -27.086763381958008 34.72457504272461 0
vertex -73.03471374511719 39.475807189941406 0
vertex 66.5117416381836 -25.750898361206055 0
endloop
endfacet
facet normal 0.932898208447232 0.3601401569888379 0
outer loop
vertex -28.74167251586914 36.57713317871094 -10.864767074584961
vertex -28.36494255065918 35.601261138916016 0
vertex -28.36494255065918 35.601261138916016 -10.972392082214355
endloop
endfacet
facet normal 0.4062150021952352 0.9137775287188481 0
outer loop
vertex -31.847412109375 39.366600036621094 -10.447248458862305
vertex -30.883956909179688 38.93830108642578 0
vertex -30.883956909179688 38.93830108642578 -10.537707328796387
endloop
endfacet
facet normal 0.7406003969930295 0.671945721002647 0
outer loop
vertex -30.883956909179688 38.93830108642578 -10.537707328796387
vertex -28.74167251586914 36.57713317871094 0
vertex -28.74167251586914 36.57713317871094 -10.864767074584961
endloop
endfacet
facet normal 0.5656250636014616 0.8246625294178477 0
outer loop
vertex -28.36494255065918 35.601261138916016 -10.972392082214355
vertex -27.086763381958008 34.72457504272461 0
vertex -27.086763381958008 34.72457504272461 -11.119972229003906
endloop
endfacet
facet normal 0 1 0
outer loop
vertex -27.086763381958008 34.72457504272461 -11.119972229003906
vertex -2.244776487350464 34.72457504272461 0
vertex -2.244776487350464 34.72457504272461 -12.46536636352539
endloop
endfacet
facet normal -0.7044832503947099 0.7097206139836326 0
outer loop
vertex -2.244776487350464 34.72457504272461 -12.46536636352539
vertex -0.7825893759727478 36.17597198486328 0
vertex -0.7825893759727478 36.17597198486328 -12.41483211517334
endloop
endfacet
facet normal -0.9999725726013778 0.0074063516647428825 0
outer loop
vertex -0.7825893759727478 36.17597198486328 -12.41483211517334
vertex -0.6956280469894409 47.9171028137207 0
vertex -0.6956280469894409 47.9171028137207 -11.370138168334961
endloop
endfacet
facet normal -0.9128094005502778 0.4083858448416673 0
outer loop
vertex -0.6956280469894409 47.9171028137207 -11.370138168334961
vertex -0.26757535338401794 48.873870849609375 0
vertex -0.26757535338401794 48.873870849609375 -11.307806968688965
endloop
endfacet
facet normal -0.6719453072725681 0.74060077236955 0
outer loop
vertex -0.26757535338401794 48.873870849609375 -11.307806968688965
vertex 2.0904839038848877 51.01333236694336 0
vertex 2.0904839038848877 51.01333236694336 -11.244292259216309
endloop
endfacet
facet normal -0.36093100127280703 0.9325925221232524 0
outer loop
vertex 2.0904839038848877 51.01333236694336 -11.244292259216309
vertex 2.957245111465454 51.348785400390625 0
vertex 2.957245111465454 51.348785400390625 -11.261252403259277
endloop
endfacet
facet normal 0.4062150021952352 0.913777528718848 0
outer loop
vertex -31.847412109375 39.366600036621094 -10.447248458862305
vertex -31.847412109375 39.366600036621094 0
vertex -30.883956909179688 38.93830108642578 0
endloop
endfacet
facet normal 0.7406003969930295 0.671945721002647 0
outer loop
vertex -30.883956909179688 38.93830108642578 -10.537707328796387
vertex -30.883956909179688 38.93830108642578 0
vertex -28.74167251586914 36.57713317871094 0
endloop
endfacet
facet normal 0.932898208447232 0.3601401569888379 0
outer loop
vertex -28.74167251586914 36.57713317871094 -10.864767074584961
vertex -28.74167251586914 36.57713317871094 0
vertex -28.36494255065918 35.601261138916016 0
endloop
endfacet
facet normal 0.5656250636014616 0.8246625294178478 0
outer loop
vertex -28.36494255065918 35.601261138916016 -10.972392082214355
vertex -28.36494255065918 35.601261138916016 0
vertex -27.086763381958008 34.72457504272461 0
endloop
endfacet
facet normal 0 1 0
outer loop
vertex -2.244776487350464 34.72457504272461 0
vertex -27.086763381958008 34.72457504272461 -11.119972229003906
vertex -27.086763381958008 34.72457504272461 0
endloop
endfacet
facet normal 0 0 1
outer loop
vertex -30.883956909179688 38.93830108642578 0
vertex -31.847412109375 39.366600036621094 0
vertex -28.74167251586914 36.57713317871094 0
endloop
endfacet
facet normal -0.7044832503947099 0.7097206139836326 0
outer loop
vertex -0.7825893759727478 36.17597198486328 0
vertex -2.244776487350464 34.72457504272461 -12.46536636352539
vertex -2.244776487350464 34.72457504272461 0
endloop
endfacet
facet normal -0.999972572601378 0.007406351664742883 0
outer loop
vertex -0.6956280469894409 47.9171028137207 0
vertex -0.7825893759727478 36.17597198486328 -12.41483211517334
vertex -0.7825893759727478 36.17597198486328 0
endloop
endfacet
facet normal -0.9128094005502778 0.4083858448416673 0
outer loop
vertex -0.26757535338401794 48.873870849609375 0
vertex -0.6956280469894409 47.9171028137207 -11.370138168334961
vertex -0.6956280469894409 47.9171028137207 0
endloop
endfacet
facet normal -0.6719453072725681 0.7406007723695501 0
outer loop
vertex 2.0904839038848877 51.01333236694336 0
vertex -0.26757535338401794 48.873870849609375 -11.307806968688965
vertex -0.26757535338401794 48.873870849609375 0
endloop
endfacet
facet normal -0.36093100127280703 0.9325925221232524 0
outer loop
vertex 2.0904839038848877 51.01333236694336 -11.244292259216309
vertex 2.0904839038848877 51.01333236694336 0
vertex 2.957245111465454 51.348785400390625 0
endloop
endfacet
facet normal -0.053865028455148546 0.08889390668348919 -0.9945835470507609
outer loop
vertex -54.828147888183594 39.42753219604492 -9.197210311889648
vertex 87.54383087158203 -70.13595581054688 -26.70041275024414
vertex 86.0793685913086 -71.60042572021484 -26.751991271972656
endloop
endfacet
facet normal -0.0538646479404462 0.08889438608492056 -0.9945835248106802
outer loop
vertex -54.828147888183594 39.42753219604492 -9.197210311889648
vertex 86.0793685913086 -71.60042572021484 -26.751991271972656
vertex 66.99886322021484 -59.92435073852539 -24.675039291381836
endloop
endfacet
facet normal -0.05386466663582351 0.08889437331625989 -0.9945835249394196
outer loop
vertex -54.828147888183594 39.42753219604492 -9.197210311889648
vertex 87.54383087158203 -60.9939079284668 -25.883310317993164
vertex 87.54383087158203 -70.13595581054688 -26.70041275024414
endloop
endfacet
facet normal -0.05386420204469583 0.0888950264686132 -0.9945834917226571
outer loop
vertex 88.08879852294922 -59.92435073852539 -25.817228317260742
vertex 87.54383087158203 -60.9939079284668 -25.883310317993164
vertex -54.828147888183594 39.42753219604492 -9.197210311889648
endloop
endfacet
facet normal -0.053865441187381576 0.08889325916858884 -0.9945835825711558
outer loop
vertex 88.79122161865234 -59.41401290893555 -25.80965805053711
vertex 88.08879852294922 -59.92435073852539 -25.817228317260742
vertex -54.828147888183594 39.42753219604492 -9.197210311889648
endloop
endfacet
facet normal -0.053864724867995775 0.0888942910194843 -0.9945835291412373
outer loop
vertex 90.90940856933594 -57.60490798950195 -25.762680053710938
vertex 88.79122161865234 -59.41401290893555 -25.80965805053711
vertex -54.828147888183594 39.42753219604492 -9.197210311889648
endloop
endfacet
facet normal -0.05386487087990747 0.08889407368362773 -0.9945835406586119
outer loop
vertex 91.0483169555664 -57.465999603271484 -25.757787704467773
vertex 90.90940856933594 -57.60490798950195 -25.762680053710938
vertex -54.828147888183594 39.42753219604492 -9.197210311889648
endloop
endfacet
facet normal -0.053864716620255965 0.08889430383873335 -0.9945835284421547
outer loop
vertex 92.857421875 -55.347808837890625 -25.666444778442383
vertex 91.0483169555664 -57.465999603271484 -25.757787704467773
vertex -54.828147888183594 39.42753219604492 -9.197210311889648
endloop
endfacet
facet normal -0.053863756761581644 0.08889578557728933 -0.9945834479892202
outer loop
vertex 92.97289276123047 -55.18887710571289 -25.658493041992188
vertex 92.857421875 -55.347808837890625 -25.666444778442383
vertex -54.828147888183594 39.42753219604492 -9.197210311889648
endloop
endfacet
facet normal -0.053864557502077096 0.08889454645790704 -0.9945835153747263
outer loop
vertex 94.4283676147461 -52.81376266479492 -25.525033950805664
vertex 92.97289276123047 -55.18887710571289 -25.658493041992188
vertex -54.828147888183594 39.42753219604492 -9.197210311889648
endloop
endfacet
facet normal -0.0538638230522815 0.08889572329986717 -0.9945834499654546
outer loop
vertex 94.5175552368164 -52.63872528076172 -25.514219284057617
vertex 94.4283676147461 -52.81376266479492 -25.525033950805664
vertex -54.828147888183594 39.42753219604492 -9.197210311889648
endloop
endfacet
facet normal -0.05386544261461959 0.0888934184106635 -0.9945835682612084
outer loop
vertex 65.82010650634766 -59.00717544555664 -24.529224395751953
vertex -54.828147888183594 39.42753219604492 -9.197210311889648
vertex 66.99886322021484 -59.92435073852539 -24.675039291381836
endloop
endfacet
facet normal -0.05386567477141288 0.08889313583890232 -0.994583580943375
outer loop
vertex 65.82010650634766 -59.00717544555664 -24.529224395751953
vertex 64.97895812988281 -58.69806671142578 -24.45604133605957
vertex -54.828147888183594 39.42753219604492 -9.197210311889648
endloop
endfacet
facet normal -0.05386437218542487 0.08889492410742206 -0.994583491657189
outer loop
vertex 96.54383087158203 -44.002201080322266 -24.852041244506836
vertex -54.828147888183594 39.42753219604492 -9.197210311889648
vertex 68.73481750488281 -27.238840103149414 -21.847675323486328
endloop
endfacet
facet normal -0.053864906037407345 0.08889398369227183 -0.9945835467978039
outer loop
vertex 95.58355712890625 -50.06516647338867 -25.34193229675293
vertex 94.5175552368164 -52.63872528076172 -25.514219284057617
vertex -54.828147888183594 39.42753219604492 -9.197210311889648
endloop
endfacet
facet normal -0.05386171014265087 0.08889930057167075 -0.9945832446499272
outer loop
vertex 95.6442642211914 -49.87833023071289 -25.328519821166992
vertex 95.58355712890625 -50.06516647338867 -25.34193229675293
vertex -54.828147888183594 39.42753219604492 -9.197210311889648
endloop
endfacet
facet normal -0.05386478719330552 0.08889416876741368 -0.9945835366925045
outer loop
vertex 96.29454803466797 -47.16969680786133 -25.121644973754883
vertex 95.6442642211914 -49.87833023071289 -25.328519821166992
vertex -54.828147888183594 39.42753219604492 -9.197210311889648
endloop
endfacet
facet normal -0.05386921233196051 0.08888652786893952 -0.99458397992635
outer loop
vertex 96.32527923583984 -46.97566223144531 -25.105968475341797
vertex 96.29454803466797 -47.16969680786133 -25.121644973754883
vertex -54.828147888183594 39.42753219604492 -9.197210311889648
endloop
endfacet
facet normal -0.053864426653028874 0.08889481132943021 -0.9945834987873293
outer loop
vertex 96.54383087158203 -44.19865036010742 -24.869598388671875
vertex 96.32527923583984 -46.97566223144531 -25.105968475341797
vertex -54.828147888183594 39.42753219604492 -9.197210311889648
endloop
endfacet
facet normal -0.05386803511721177 0.08888835121878667 -0.994583880731141
outer loop
vertex 96.54383087158203 -44.002201080322266 -24.852041244506836
vertex 96.54383087158203 -44.19865036010742 -24.869598388671875
vertex -54.828147888183594 39.42753219604492 -9.197210311889648
endloop
endfacet
facet normal -0.053864704153177914 0.0888944635559175 -0.994583514842065
outer loop
vertex 86.0793685913086 -71.60042572021484 -26.751991271972656
vertex 69.00830078125 -71.60042572021484 -25.827455520629883
vertex 67.54383087158203 -70.13595581054688 -25.617250442504883
endloop
endfacet
facet normal -0.053864711769726265 0.08889437309951781 -0.994583522514428
outer loop
vertex 86.0793685913086 -71.60042572021484 -26.751991271972656
vertex 67.54383087158203 -70.13595581054688 -25.617250442504883
vertex 67.54383087158203 -60.9939079284668 -24.800148010253906
endloop
endfacet
facet normal -0.05386552504711403 0.08889296687118994 -0.9945836041541385
outer loop
vertex 86.0793685913086 -71.60042572021484 -26.751991271972656
vertex 67.54383087158203 -60.9939079284668 -24.800148010253906
vertex 66.99886322021484 -59.92435073852539 -24.675039291381836
endloop
endfacet
facet normal -0.053858997807723526 0.08890163995695964 -0.9945831824277498
outer loop
vertex 66.29644775390625 -59.41401290893555 -24.591384887695312
vertex 65.82010650634766 -59.00717544555664 -24.529224395751953
vertex 66.99886322021484 -59.92435073852539 -24.675039291381836
endloop
endfacet
facet normal -0.7071067811865476 -0.7071067811865476 0
outer loop
vertex 69.00830078125 -71.60042572021484 -25.827455520629883
vertex 67.54383087158203 -70.13595581054688 0
vertex 67.54383087158203 -70.13595581054688 -25.617250442504883
endloop
endfacet
facet normal -1 0 0
outer loop
vertex 67.54383087158203 -70.13595581054688 -25.617250442504883
vertex 67.54383087158203 -60.9939079284668 0
vertex 67.54383087158203 -60.9939079284668 -24.800148010253906
endloop
endfacet
facet normal 0 -1 0
outer loop
vertex 86.0793685913086 -71.60042572021484 -26.751991271972656
vertex 69.00830078125 -71.60042572021484 0
vertex 69.00830078125 -71.60042572021484 -25.827455520629883
endloop
endfacet
facet normal -0.891006172582214 -0.4539911898048174 0
outer loop
vertex 67.54383087158203 -60.9939079284668 -24.800148010253906
vertex 66.99886322021484 -59.92435073852539 0
vertex 66.99886322021484 -59.92435073852539 -24.675039291381836
endloop
endfacet
facet normal -0.3449309747578428 -0.9386280534123218 0
outer loop
vertex 65.82010650634766 -59.00717544555664 -24.529224395751953
vertex 64.97895812988281 -58.69806671142578 0
vertex 64.97895812988281 -58.69806671142578 -24.45604133605957
endloop
endfacet
facet normal -0.6494513750691424 -0.7604031242839551 0
outer loop
vertex 66.29644775390625 -59.41401290893555 -24.591384887695312
vertex 65.82010650634766 -59.00717544555664 0
vertex 65.82010650634766 -59.00717544555664 -24.529224395751953
endloop
endfacet
facet normal -0.5877876050088813 -0.8090152850211937 0
outer loop
vertex 66.99886322021484 -59.92435073852539 -24.675039291381836
vertex 66.29644775390625 -59.41401290893555 0
vertex 66.29644775390625 -59.41401290893555 -24.591384887695312
endloop
endfacet
facet normal 0.7071086230829225 -0.7071049392853748 0
outer loop
vertex 87.54383087158203 -70.13595581054688 -26.70041275024414
vertex 86.0793685913086 -71.60042572021484 0
vertex 86.0793685913086 -71.60042572021484 -26.751991271972656
endloop
endfacet
facet normal 1 0 0
outer loop
vertex 87.54383087158203 -60.9939079284668 -25.883310317993164
vertex 87.54383087158203 -70.13595581054688 0
vertex 87.54383087158203 -70.13595581054688 -26.70041275024414
endloop
endfacet
facet normal 0.891006172582214 -0.4539911898048174 0
outer loop
vertex 88.08879852294922 -59.92435073852539 -25.817228317260742
vertex 87.54383087158203 -60.9939079284668 0
vertex 87.54383087158203 -60.9939079284668 -25.883310317993164
endloop
endfacet
facet normal 0.5877834264395431 -0.809018320931603 0
outer loop
vertex 88.79122161865234 -59.41401290893555 -25.80965805053711
vertex 88.08879852294922 -59.92435073852539 0
vertex 88.08879852294922 -59.92435073852539 -25.817228317260742
endloop
endfacet
facet normal 0.6494485375090893 -0.7604055478015038 0
outer loop
vertex 90.90940856933594 -57.60490798950195 -25.762680053710938
vertex 88.79122161865234 -59.41401290893555 0
vertex 88.79122161865234 -59.41401290893555 -25.80965805053711
endloop
endfacet
facet normal 0.7071067811865475 -0.7071067811865475 0
outer loop
vertex 91.0483169555664 -57.465999603271484 -25.757787704467773
vertex 90.90940856933594 -57.60490798950195 0
vertex 90.90940856933594 -57.60490798950195 -25.762680053710938
endloop
endfacet
facet normal 0.7604061254050815 -0.649447861222463 0
outer loop
vertex 92.857421875 -55.347808837890625 -25.666444778442383
vertex 91.0483169555664 -57.465999603271484 0
vertex 91.0483169555664 -57.465999603271484 -25.757787704467773
endloop
endfacet
facet normal 0.8090164527561406 -0.5877859977660844 0
outer loop
vertex 92.97289276123047 -55.18887710571289 -25.658493041992188
vertex 92.857421875 -55.347808837890625 0
vertex 92.857421875 -55.347808837890625 -25.666444778442383
endloop
endfacet
facet normal 0.8526397081995875 -0.5224993090917176 0
outer loop
vertex 94.4283676147461 -52.81376266479492 -25.525033950805664
vertex 92.97289276123047 -55.18887710571289 0
vertex 92.97289276123047 -55.18887710571289 -25.658493041992188
endloop
endfacet
facet normal 0.8910031878304312 -0.4539970476512037 0
outer loop
vertex 94.5175552368164 -52.63872528076172 -25.514219284057617
vertex 94.4283676147461 -52.81376266479492 0
vertex 94.4283676147461 -52.81376266479492 -25.525033950805664
endloop
endfacet
facet normal 0.9238796682527024 -0.3826831046561584 0
outer loop
vertex 95.58355712890625 -50.06516647338867 -25.34193229675293
vertex 94.5175552368164 -52.63872528076172 0
vertex 94.5175552368164 -52.63872528076172 -25.514219284057617
endloop
endfacet
facet normal 0.951056041955574 -0.3090184542382499 0
outer loop
vertex 95.6442642211914 -49.87833023071289 -25.328519821166992
vertex 95.58355712890625 -50.06516647338867 0
vertex 95.58355712890625 -50.06516647338867 -25.34193229675293
endloop
endfacet
facet normal 0.9723700456853624 -0.23344484199451923 0
outer loop
vertex 96.29454803466797 -47.16969680786133 -25.121644973754883
vertex 95.6442642211914 -49.87833023071289 0
vertex 95.6442642211914 -49.87833023071289 -25.328519821166992
endloop
endfacet
facet normal 0.9876890143073872 -0.1564302113292109 0
outer loop
vertex 96.32527923583984 -46.97566223144531 -25.105968475341797
vertex 96.29454803466797 -47.16969680786133 0
vertex 96.29454803466797 -47.16969680786133 -25.121644973754883
endloop
endfacet
facet normal 0.9969174443191705 -0.07845769058628764 0
outer loop
vertex 96.54383087158203 -44.19865036010742 -24.869598388671875
vertex 96.32527923583984 -46.97566223144531 0
vertex 96.32527923583984 -46.97566223144531 -25.105968475341797
endloop
endfacet
facet normal 1 0 0
outer loop
vertex 96.54383087158203 -44.002201080322266 -24.852041244506836
vertex 96.54383087158203 -44.19865036010742 0
vertex 96.54383087158203 -44.19865036010742 -24.869598388671875
endloop
endfacet
facet normal 0.9969174527488621 0.07845758347489595 0
outer loop
vertex 96.54383087158203 -44.002201080322266 0
vertex 96.54383087158203 -44.002201080322266 -24.852041244506836
vertex 96.32527923583984 -41.22518539428711 -24.591999053955078
endloop
endfacet
facet normal 0.9876885391309113 0.15643321152954195 0
outer loop
vertex 96.29454803466797 -41.03115463256836 -24.5729923248291
vertex 96.32527923583984 -41.22518539428711 0
vertex 96.32527923583984 -41.22518539428711 -24.591999053955078
endloop
endfacet
facet normal 0.9723700456853626 0.23344484199451926 0
outer loop
vertex 95.6442642211914 -38.3225212097168 -24.29568099975586
vertex 96.29454803466797 -41.03115463256836 0
vertex 96.29454803466797 -41.03115463256836 -24.5729923248291
endloop
endfacet
facet normal -0.05386461849344083 0.08889451959209234 -0.9945835144727904
outer loop
vertex 96.32527923583984 -41.22518539428711 -24.591999053955078
vertex 96.54383087158203 -44.002201080322266 -24.852041244506836
vertex 68.73481750488281 -27.238840103149414 -21.847675323486328
endloop
endfacet
facet normal -0.053864093311105345 0.08889554323298074 -0.994583451423301
outer loop
vertex 96.29454803466797 -41.03115463256836 -24.5729923248291
vertex 96.32527923583984 -41.22518539428711 -24.591999053955078
vertex 68.73481750488281 -27.238840103149414 -21.847675323486328
endloop
endfacet
facet normal -0.05386475554628682 0.08889423595904311 -0.9945835324009725
outer loop
vertex 95.6442642211914 -38.3225212097168 -24.29568099975586
vertex 96.29454803466797 -41.03115463256836 -24.5729923248291
vertex 68.73481750488281 -27.238840103149414 -21.847675323486328
endloop
endfacet
facet normal -0.053864021237905 0.08889558496994704 -0.9945834515961611
outer loop
vertex 95.58355712890625 -38.135684967041016 -24.275693893432617
vertex 95.6442642211914 -38.3225212097168 -24.29568099975586
vertex 71.76593017578125 -25.999998092651367 -21.90110969543457
endloop
endfacet
facet normal -0.05386470332730288 0.08889436089685544 -0.9945835240623089
outer loop
vertex 95.6442642211914 -38.3225212097168 -24.29568099975586
vertex 68.73481750488281 -27.238840103149414 -21.847675323486328
vertex 71.57909393310547 -26.06070327758789 -21.89641571044922
endloop
endfacet
facet normal -0.05386809134451441 0.08888779053758178 -0.9945839277950584
outer loop
vertex 95.6442642211914 -38.3225212097168 -24.29568099975586
vertex 71.57909393310547 -26.06070327758789 -21.89641571044922
vertex 71.76593017578125 -25.999998092651367 -21.90110969543457
endloop
endfacet
facet normal -0.053864389080640694 0.08889490062360493 -0.9945834928411434
outer loop
vertex 94.5175552368164 -35.56212615966797 -23.987939834594727
vertex 71.76593017578125 -25.999998092651367 -21.90110969543457
vertex 74.47456359863281 -25.349712371826172 -21.989681243896484
endloop
endfacet
facet normal -0.05386976977438384 0.08888446587482458 -0.994584134013107
outer loop
vertex 94.5175552368164 -35.56212615966797 -23.987939834594727
vertex 74.47456359863281 -25.349712371826172 -21.989681243896484
vertex 74.66859436035156 -25.318981170654297 -21.99744415283203
endloop
endfacet
facet normal -0.053864618334992974 0.08889436291361599 -0.9945835284850679
outer loop
vertex 92.97289276123047 -33.01197052001953 -23.676355361938477
vertex 74.66859436035156 -25.318981170654297 -21.99744415283203
vertex 77.44561004638672 -25.10042381286621 -22.128307342529297
endloop
endfacet
facet normal -0.053864097397906964 0.08889537316248096 -0.9945834664028013
outer loop
vertex 92.97289276123047 -33.01197052001953 -23.676355361938477
vertex 77.44561004638672 -25.10042381286621 -22.128307342529297
vertex 77.64205932617188 -25.10042381286621 -22.138946533203125
endloop
endfacet
facet normal -0.053864425458648356 0.08889484792138323 -0.994583495581464
outer loop
vertex 91.0483169555664 -30.734851837158203 -23.36859893798828
vertex 77.64205932617188 -25.10042381286621 -22.138946533203125
vertex 80.41907501220703 -25.318981170654297 -22.30887794494629
endloop
endfacet
facet normal -0.0538724828841435 0.08887922219654731 -0.9945844556645929
outer loop
vertex 91.0483169555664 -30.734851837158203 -23.36859893798828
vertex 80.41907501220703 -25.318981170654297 -22.30887794494629
vertex 80.61310577392578 -25.349712371826172 -22.322134017944336
endloop
endfacet
facet normal -0.05386405370462828 0.08889560732274093 -0.9945834478399618
outer loop
vertex 90.90940856933594 -30.59593963623047 -23.348661422729492
vertex 80.61310577392578 -25.349712371826172 -22.322134017944336
vertex 83.32173919677734 -25.999998092651367 -22.526948928833008
endloop
endfacet
facet normal -0.053871737222478115 0.08888059667633014 -0.994584373224862
outer loop
vertex 88.79122161865234 -28.786836624145508 -23.072248458862305
vertex 83.32173919677734 -25.999998092651367 -22.526948928833008
vertex 83.50857543945312 -26.06070327758789 -22.54249382019043
endloop
endfacet
facet normal -0.053864460506837075 0.08889473309937969 -0.9945835039459971
outer loop
vertex 94.5175552368164 -35.56212615966797 -23.987939834594727
vertex 95.58355712890625 -38.135684967041016 -24.275693893432617
vertex 71.76593017578125 -25.999998092651367 -21.90110969543457
endloop
endfacet
facet normal -0.0538712250677209 0.08888167891800833 -0.9945843042509865
outer loop
vertex 94.4283676147461 -35.3870849609375 -23.967466354370117
vertex 94.5175552368164 -35.56212615966797 -23.987939834594727
vertex 74.66859436035156 -25.318981170654297 -21.99744415283203
endloop
endfacet
facet normal -0.05386430214571569 0.08889510450953347 -0.9945834793261921
outer loop
vertex 92.97289276123047 -33.01197052001953 -23.676355361938477
vertex 94.4283676147461 -35.3870849609375 -23.967466354370117
vertex 74.66859436035156 -25.318981170654297 -21.99744415283203
endloop
endfacet
facet normal -0.05386734863861231 0.08888914689523038 -0.9945838467996976
outer loop
vertex 92.857421875 -32.8530387878418 -23.65589714050293
vertex 92.97289276123047 -33.01197052001953 -23.676355361938477
vertex 77.64205932617188 -25.10042381286621 -22.138946533203125
endloop
endfacet
facet normal -0.05386450455687361 0.08889466240310646 -0.9945835078790922
outer loop
vertex 91.0483169555664 -30.734851837158203 -23.36859893798828
vertex 92.857421875 -32.8530387878418 -23.65589714050293
vertex 77.64205932617188 -25.10042381286621 -22.138946533203125
endloop
endfacet
facet normal -0.05387406863048923 0.08887618541310352 -0.9945846411420262
outer loop
vertex 90.90940856933594 -30.59593963623047 -23.348661422729492
vertex 91.0483169555664 -30.734851837158203 -23.36859893798828
vertex 80.61310577392578 -25.349712371826172 -22.322134017944336
endloop
endfacet
facet normal -0.05388934778863457 0.08884687143634237 -0.9945864324586827
outer loop
vertex 88.63228607177734 -28.67136573791504 -23.053321838378906
vertex 88.79122161865234 -28.786836624145508 -23.072248458862305
vertex 83.50857543945312 -26.06070327758789 -22.54249382019043
endloop
endfacet
facet normal -0.05386369269541162 0.08889619739688524 -0.9945834146503693
outer loop
vertex 88.79122161865234 -28.786836624145508 -23.072248458862305
vertex 90.90940856933594 -30.59593963623047 -23.348661422729492
vertex 83.32173919677734 -25.999998092651367 -22.526948928833008
endloop
endfacet
facet normal -0.05386476280334493 0.08889454915090615 -0.9945835040153223
outer loop
vertex 88.63228607177734 -28.67136573791504 -23.053321838378906
vertex 83.50857543945312 -26.06070327758789 -22.54249382019043
vertex 86.08213806152344 -27.126707077026367 -22.777151107788086
endloop
endfacet
facet normal -0.0538422624248748 0.08893132606528323 -0.9945814345850426
outer loop
vertex 86.25717163085938 -27.21589469909668 -22.794601440429688
vertex 88.63228607177734 -28.67136573791504 -23.053321838378906
vertex 86.08213806152344 -27.126707077026367 -22.777151107788086
endloop
endfacet
facet normal 0.556223893353879 0.831032478584473 0
outer loop
vertex 66.5117416381836 -25.750898361206055 -21.594287872314453
vertex 68.73481750488281 -27.238840103149414 0
vertex 68.73481750488281 -27.238840103149414 -21.847675323486328
endloop
endfacet
facet normal -0.3826831423191518 0.9238796526521946 0
outer loop
vertex 68.73481750488281 -27.238840103149414 -21.847675323486328
vertex 71.57909393310547 -26.06070327758789 0
vertex 71.57909393310547 -26.06070327758789 -21.89641571044922
endloop
endfacet
facet normal -0.30900967232305787 0.9510588953428679 0
outer loop
vertex 71.57909393310547 -26.06070327758789 -21.89641571044922
vertex 71.76593017578125 -25.999998092651367 0
vertex 71.76593017578125 -25.999998092651367 -21.90110969543457
endloop
endfacet
facet normal -0.23344548939715076 0.9723698902578816 0
outer loop
vertex 71.76593017578125 -25.999998092651367 -21.90110969543457
vertex 74.47456359863281 -25.349712371826172 0
vertex 74.47456359863281 -25.349712371826172 -21.989681243896484
endloop
endfacet
facet normal -0.15643321152954193 0.9876885391309111 0
outer loop
vertex 74.47456359863281 -25.349712371826172 -21.989681243896484
vertex 74.66859436035156 -25.318981170654297 0
vertex 74.66859436035156 -25.318981170654297 -21.99744415283203
endloop
endfacet
facet normal 0.3826832049310671 0.9238796267175107 0
outer loop
vertex 83.50857543945312 -26.06070327758789 -22.54249382019043
vertex 86.08213806152344 -27.126707077026367 0
vertex 86.08213806152344 -27.126707077026367 -22.777151107788086
endloop
endfacet
facet normal -0.07845962498012495 0.9969172920799287 0
outer loop
vertex 74.66859436035156 -25.318981170654297 -21.99744415283203
vertex 77.44561004638672 -25.10042381286621 0
vertex 77.44561004638672 -25.10042381286621 -22.128307342529297
endloop
endfacet
facet normal 0 1 0
outer loop
vertex 77.44561004638672 -25.10042381286621 -22.128307342529297
vertex 77.64205932617188 -25.10042381286621 0
vertex 77.64205932617188 -25.10042381286621 -22.138946533203125
endloop
endfacet
facet normal 0.07845962498012495 0.9969172920799289 0
outer loop
vertex 77.64205932617188 -25.10042381286621 -22.138946533203125
vertex 80.41907501220703 -25.318981170654297 0
vertex 80.41907501220703 -25.318981170654297 -22.30887794494629
endloop
endfacet
facet normal 0.23344548939715076 0.9723698902578817 0
outer loop
vertex 80.61310577392578 -25.349712371826172 -22.322134017944336
vertex 83.32173919677734 -25.999998092651367 0
vertex 83.32173919677734 -25.999998092651367 -22.526948928833008
endloop
endfacet
facet normal 0.15643321152954193 0.9876885391309113 0
outer loop
vertex 80.41907501220703 -25.318981170654297 -22.30887794494629
vertex 80.61310577392578 -25.349712371826172 0
vertex 80.61310577392578 -25.349712371826172 -22.322134017944336
endloop
endfacet
facet normal 0.3090096723230579 0.951058895342868 0
outer loop
vertex 83.32173919677734 -25.999998092651367 -22.526948928833008
vertex 83.50857543945312 -26.06070327758789 0
vertex 83.50857543945312 -26.06070327758789 -22.54249382019043
endloop
endfacet
facet normal 0.951056041955574 0.3090184542382499 0
outer loop
vertex 95.58355712890625 -38.135684967041016 -24.275693893432617
vertex 95.6442642211914 -38.3225212097168 0
vertex 95.6442642211914 -38.3225212097168 -24.29568099975586
endloop
endfacet
facet normal 0.9238796682527025 0.38268310465615846 0
outer loop
vertex 94.5175552368164 -35.56212615966797 -23.987939834594727
vertex 95.58355712890625 -38.135684967041016 0
vertex 95.58355712890625 -38.135684967041016 -24.275693893432617
endloop
endfacet
facet normal 0.8910071900720902 0.45398919286678874 0
outer loop
vertex 94.4283676147461 -35.3870849609375 -23.967466354370117
vertex 94.5175552368164 -35.56212615966797 0
vertex 94.5175552368164 -35.56212615966797 -23.987939834594727
endloop
endfacet
facet normal 0.7604055478015038 0.6494485375090892 0
outer loop
vertex 91.0483169555664 -30.734851837158203 -23.36859893798828
vertex 92.857421875 -32.8530387878418 0
vertex 92.857421875 -32.8530387878418 -23.65589714050293
endloop
endfacet
facet normal 0.8090164527561405 0.5877859977660844 0
outer loop
vertex 92.857421875 -32.8530387878418 -23.65589714050293
vertex 92.97289276123047 -33.01197052001953 0
vertex 92.97289276123047 -33.01197052001953 -23.676355361938477
endloop
endfacet
facet normal 0.8526397081995875 0.5224993090917176 0
outer loop
vertex 92.97289276123047 -33.01197052001953 -23.676355361938477
vertex 94.4283676147461 -35.3870849609375 0
vertex 94.4283676147461 -35.3870849609375 -23.967466354370117
endloop
endfacet
facet normal 0.5224983135197337 0.8526403182872799 0
outer loop
vertex 86.25717163085938 -27.21589469909668 -22.794601440429688
vertex 88.63228607177734 -28.67136573791504 0
vertex 88.63228607177734 -28.67136573791504 -23.053321838378906
endloop
endfacet
facet normal 0.7071164902574747 0.7070970719823063 0
outer loop
vertex 90.90940856933594 -30.59593963623047 -23.348661422729492
vertex 91.0483169555664 -30.734851837158203 0
vertex 91.0483169555664 -30.734851837158203 -23.36859893798828
endloop
endfacet
facet normal 0.6494481415941276 0.760405885945088 0
outer loop
vertex 88.79122161865234 -28.786836624145508 -23.072248458862305
vertex 90.90940856933594 -30.59593963623047 0
vertex 90.90940856933594 -30.59593963623047 -23.348661422729492
endloop
endfacet
facet normal 0.587776764010319 0.8090231614048871 0
outer loop
vertex 88.63228607177734 -28.67136573791504 -23.053321838378906
vertex 88.79122161865234 -28.786836624145508 0
vertex 88.79122161865234 -28.786836624145508 -23.072248458862305
endloop
endfacet
facet normal 0.45400490267214055 0.8909991853810307 0
outer loop
vertex 86.08213806152344 -27.126707077026367 -22.777151107788086
vertex 86.25717163085938 -27.21589469909668 0
vertex 86.25717163085938 -27.21589469909668 -22.794601440429688
endloop
endfacet
facet normal 0.002526363751743593 -0.9999968087380049 0
outer loop
vertex -75.5295181274414 -59.053043365478516 0
vertex 64.97895812988281 -58.69806671142578 -24.45604133605957
vertex 64.97895812988281 -58.69806671142578 0
endloop
endfacet
facet normal 0 0 1
outer loop
vertex 66.5117416381836 -25.750898361206055 0
vertex -73.03471374511719 39.475807189941406 0
vertex 64.97895812988281 -58.69806671142578 0
endloop
endfacet
facet normal -0.7071067811865475 -0.7071067811865475 0
outer loop
vertex 67.54383087158203 -70.13595581054688 0
vertex 69.00830078125 -71.60042572021484 -25.827455520629883
vertex 69.00830078125 -71.60042572021484 0
endloop
endfacet
facet normal -1 0 0
outer loop
vertex 67.54383087158203 -60.9939079284668 0
vertex 67.54383087158203 -70.13595581054688 -25.617250442504883
vertex 67.54383087158203 -70.13595581054688 0
endloop
endfacet
facet normal -0.891006172582214 -0.45399118980481745 0
outer loop
vertex 66.99886322021484 -59.92435073852539 0
vertex 67.54383087158203 -60.9939079284668 -24.800148010253906
vertex 67.54383087158203 -60.9939079284668 0
endloop
endfacet
facet normal -0.05386472082092412 0.08889382301408112 -0.994583571189885
outer loop
vertex 64.97895812988281 -58.69806671142578 -24.45604133605957
vertex -75.5295181274414 -59.053043365478516 -16.878101348876953
vertex -76.99943542480469 -57.58211135864258 -16.667024612426758
endloop
endfacet
facet normal -0.34493097475784273 -0.9386280534123217 0
outer loop
vertex 64.97895812988281 -58.69806671142578 0
vertex 65.82010650634766 -59.00717544555664 -24.529224395751953
vertex 65.82010650634766 -59.00717544555664 0
endloop
endfacet
facet normal -0.6494513750691424 -0.7604031242839551 0
outer loop
vertex 65.82010650634766 -59.00717544555664 0
vertex 66.29644775390625 -59.41401290893555 -24.591384887695312
vertex 66.29644775390625 -59.41401290893555 0
endloop
endfacet
facet normal 0 -1 0
outer loop
vertex 69.00830078125 -71.60042572021484 0
vertex 86.0793685913086 -71.60042572021484 -26.751991271972656
vertex 86.0793685913086 -71.60042572021484 0
endloop
endfacet
facet normal 0.7071086230829224 -0.7071049392853748 0
outer loop
vertex 86.0793685913086 -71.60042572021484 0
vertex 87.54383087158203 -70.13595581054688 -26.70041275024414
vertex 87.54383087158203 -70.13595581054688 0
endloop
endfacet
facet normal 1 0 0
outer loop
vertex 87.54383087158203 -60.9939079284668 0
vertex 87.54383087158203 -70.13595581054688 0
vertex 87.54383087158203 -60.9939079284668 -25.883310317993164
endloop
endfacet
facet normal 0.8910061725822142 -0.45399118980481745 0
outer loop
vertex 88.08879852294922 -59.92435073852539 -25.817228317260742
vertex 88.08879852294922 -59.92435073852539 0
vertex 87.54383087158203 -60.9939079284668 0
endloop
endfacet
facet normal 0.5877834264395432 -0.809018320931603 0
outer loop
vertex 88.08879852294922 -59.92435073852539 0
vertex 88.79122161865234 -59.41401290893555 -25.80965805053711
vertex 88.79122161865234 -59.41401290893555 0
endloop
endfacet
facet normal 0.6494485375090892 -0.7604055478015037 0
outer loop
vertex 88.79122161865234 -59.41401290893555 0
vertex 90.90940856933594 -57.60490798950195 -25.762680053710938
vertex 90.90940856933594 -57.60490798950195 0
endloop
endfacet
facet normal 0.7071067811865475 -0.7071067811865475 0
outer loop
vertex 91.0483169555664 -57.465999603271484 -25.757787704467773
vertex 91.0483169555664 -57.465999603271484 0
vertex 90.90940856933594 -57.60490798950195 0
endloop
endfacet
facet normal 0.7604061254050815 -0.649447861222463 0
outer loop
vertex 91.0483169555664 -57.465999603271484 0
vertex 92.857421875 -55.347808837890625 -25.666444778442383
vertex 92.857421875 -55.347808837890625 0
endloop
endfacet
facet normal 0.8090164527561405 -0.5877859977660844 0
outer loop
vertex 92.97289276123047 -55.18887710571289 -25.658493041992188
vertex 92.97289276123047 -55.18887710571289 0
vertex 92.857421875 -55.347808837890625 0
endloop
endfacet
facet normal 0.8526397081995875 -0.5224993090917176 0
outer loop
vertex 94.4283676147461 -52.81376266479492 -25.525033950805664
vertex 94.4283676147461 -52.81376266479492 0
vertex 92.97289276123047 -55.18887710571289 0
endloop
endfacet
facet normal 0.8910031878304312 -0.4539970476512037 0
outer loop
vertex 94.5175552368164 -52.63872528076172 -25.514219284057617
vertex 94.5175552368164 -52.63872528076172 0
vertex 94.4283676147461 -52.81376266479492 0
endloop
endfacet
facet normal 0.9238796682527025 -0.38268310465615846 0
outer loop
vertex 95.58355712890625 -50.06516647338867 -25.34193229675293
vertex 95.58355712890625 -50.06516647338867 0
vertex 94.5175552368164 -52.63872528076172 0
endloop
endfacet
facet normal 0.951056041955574 -0.3090184542382499 0
outer loop
vertex 95.6442642211914 -49.87833023071289 -25.328519821166992
vertex 95.6442642211914 -49.87833023071289 0
vertex 95.58355712890625 -50.06516647338867 0
endloop
endfacet
facet normal 0.9723700456853624 -0.23344484199451923 0
outer loop
vertex 96.29454803466797 -47.16969680786133 -25.121644973754883
vertex 96.29454803466797 -47.16969680786133 0
vertex 95.6442642211914 -49.87833023071289 0
endloop
endfacet
facet normal 0.9876890143073873 -0.1564302113292109 0
outer loop
vertex 96.32527923583984 -46.97566223144531 -25.105968475341797
vertex 96.32527923583984 -46.97566223144531 0
vertex 96.29454803466797 -47.16969680786133 0
endloop
endfacet
facet normal 0.9969174443191705 -0.07845769058628764 0
outer loop
vertex 96.54383087158203 -44.19865036010742 -24.869598388671875
vertex 96.54383087158203 -44.19865036010742 0
vertex 96.32527923583984 -46.97566223144531 0
endloop
endfacet
facet normal 1 0 0
outer loop
vertex 96.54383087158203 -44.002201080322266 -24.852041244506836
vertex 96.54383087158203 -44.002201080322266 0
vertex 96.54383087158203 -44.19865036010742 0
endloop
endfacet
facet normal 0.9969174527488622 0.07845758347489597 0
outer loop
vertex 96.32527923583984 -41.22518539428711 -24.591999053955078
vertex 96.32527923583984 -41.22518539428711 0
vertex 96.54383087158203 -44.002201080322266 0
endloop
endfacet
facet normal 0.9876885391309113 0.15643321152954193 0
outer loop
vertex 96.29454803466797 -41.03115463256836 -24.5729923248291
vertex 96.29454803466797 -41.03115463256836 0
vertex 96.32527923583984 -41.22518539428711 0
endloop
endfacet
facet normal 0 0 1
outer loop
vertex 67.54383087158203 -60.9939079284668 0
vertex 67.54383087158203 -70.13595581054688 0
vertex 69.00830078125 -71.60042572021484 0
endloop
endfacet
facet normal 0 0 1
outer loop
vertex 67.54383087158203 -60.9939079284668 0
vertex 69.00830078125 -71.60042572021484 0
vertex 86.0793685913086 -71.60042572021484 0
endloop
endfacet
facet normal 0 0 1
outer loop
vertex 66.99886322021484 -59.92435073852539 0
vertex 67.54383087158203 -60.9939079284668 0
vertex 87.54383087158203 -60.9939079284668 0
endloop
endfacet
facet normal 0 0 1
outer loop
vertex 66.29644775390625 -59.41401290893555 0
vertex 66.99886322021484 -59.92435073852539 0
vertex 88.08879852294922 -59.92435073852539 0
endloop
endfacet
facet normal 0 0 1
outer loop
vertex 65.82010650634766 -59.00717544555664 0
vertex 66.29644775390625 -59.41401290893555 0
vertex 88.08879852294922 -59.92435073852539 0
endloop
endfacet
facet normal 0 0 1
outer loop
vertex 64.97895812988281 -58.69806671142578 0
vertex 65.82010650634766 -59.00717544555664 0
vertex 86.08213806152344 -27.126707077026367 0
endloop
endfacet
facet normal 0 0 1
outer loop
vertex 67.54383087158203 -60.9939079284668 0
vertex 86.0793685913086 -71.60042572021484 0
vertex 87.54383087158203 -70.13595581054688 0
endloop
endfacet
facet normal 0 0 1
outer loop
vertex 87.54383087158203 -60.9939079284668 0
vertex 67.54383087158203 -60.9939079284668 0
vertex 87.54383087158203 -70.13595581054688 0
endloop
endfacet
facet normal 0 0 1
outer loop
vertex 88.08879852294922 -59.92435073852539 0
vertex 66.99886322021484 -59.92435073852539 0
vertex 87.54383087158203 -60.9939079284668 0
endloop
endfacet
facet normal 0 0 1
outer loop
vertex 65.82010650634766 -59.00717544555664 0
vertex 88.08879852294922 -59.92435073852539 0
vertex 88.79122161865234 -59.41401290893555 0
endloop
endfacet
facet normal 0 0 1
outer loop
vertex 65.82010650634766 -59.00717544555664 0
vertex 88.79122161865234 -59.41401290893555 0
vertex 90.90940856933594 -57.60490798950195 0
endloop
endfacet
facet normal 0 0 1
outer loop
vertex 65.82010650634766 -59.00717544555664 0
vertex 90.90940856933594 -57.60490798950195 0
vertex 91.0483169555664 -57.465999603271484 0
endloop
endfacet
facet normal 0 0 1
outer loop
vertex 65.82010650634766 -59.00717544555664 0
vertex 91.0483169555664 -57.465999603271484 0
vertex 92.857421875 -55.347808837890625 0
endloop
endfacet
facet normal 0 0 1
outer loop
vertex 65.82010650634766 -59.00717544555664 0
vertex 92.857421875 -55.347808837890625 0
vertex 92.97289276123047 -55.18887710571289 0
endloop
endfacet
facet normal 0 0 1
outer loop
vertex 65.82010650634766 -59.00717544555664 0
vertex 92.97289276123047 -55.18887710571289 0
vertex 94.4283676147461 -52.81376266479492 0
endloop
endfacet
facet normal 0 0 1
outer loop
vertex 65.82010650634766 -59.00717544555664 0
vertex 94.4283676147461 -52.81376266479492 0
vertex 94.5175552368164 -52.63872528076172 0
endloop
endfacet
facet normal 0 0 1
outer loop
vertex 65.82010650634766 -59.00717544555664 0
vertex 94.5175552368164 -52.63872528076172 0
vertex 95.58355712890625 -50.06516647338867 0
endloop
endfacet
facet normal 0 0 1
outer loop
vertex 65.82010650634766 -59.00717544555664 0
vertex 95.58355712890625 -50.06516647338867 0
vertex 95.6442642211914 -49.87833023071289 0
endloop
endfacet
facet normal 0 0 1
outer loop
vertex 65.82010650634766 -59.00717544555664 0
vertex 95.6442642211914 -38.3225212097168 0
vertex 95.58355712890625 -38.135684967041016 0
endloop
endfacet
facet normal 0 0 1
outer loop
vertex 65.82010650634766 -59.00717544555664 0
vertex 95.58355712890625 -38.135684967041016 0
vertex 94.5175552368164 -35.56212615966797 0
endloop
endfacet
facet normal 0 0 1
outer loop
vertex 65.82010650634766 -59.00717544555664 0
vertex 91.0483169555664 -30.734851837158203 0
vertex 90.90940856933594 -30.59593963623047 0
endloop
endfacet
facet normal 0 0 1
outer loop
vertex 65.82010650634766 -59.00717544555664 0
vertex 94.5175552368164 -35.56212615966797 0
vertex 94.4283676147461 -35.3870849609375 0
endloop
endfacet
facet normal 0 0 1
outer loop
vertex 65.82010650634766 -59.00717544555664 0
vertex 94.4283676147461 -35.3870849609375 0
vertex 92.97289276123047 -33.01197052001953 0
endloop
endfacet
facet normal 0 0 1
outer loop
vertex 91.0483169555664 -30.734851837158203 0
vertex 65.82010650634766 -59.00717544555664 0
vertex 92.857421875 -32.8530387878418 0
endloop
endfacet
facet normal 0 0 1
outer loop
vertex 92.857421875 -32.8530387878418 0
vertex 65.82010650634766 -59.00717544555664 0
vertex 92.97289276123047 -33.01197052001953 0
endloop
endfacet
facet normal 0 0 1
outer loop
vertex 65.82010650634766 -59.00717544555664 0
vertex 95.6442642211914 -49.87833023071289 0
vertex 96.29454803466797 -47.16969680786133 0
endloop
endfacet
facet normal 0 0 1
outer loop
vertex 65.82010650634766 -59.00717544555664 0
vertex 96.29454803466797 -47.16969680786133 0
vertex 96.32527923583984 -46.97566223144531 0
endloop
endfacet
facet normal 0 0 1
outer loop
vertex 65.82010650634766 -59.00717544555664 0
vertex 96.32527923583984 -46.97566223144531 0
vertex 96.54383087158203 -44.19865036010742 0
endloop
endfacet
facet normal 0 0 1
outer loop
vertex 65.82010650634766 -59.00717544555664 0
vertex 96.54383087158203 -44.19865036010742 0
vertex 96.54383087158203 -44.002201080322266 0
endloop
endfacet
facet normal 0 0 1
outer loop
vertex 65.82010650634766 -59.00717544555664 0
vertex 96.54383087158203 -44.002201080322266 0
vertex 96.32527923583984 -41.22518539428711 0
endloop
endfacet
facet normal 0 0 1
outer loop
vertex 65.82010650634766 -59.00717544555664 0
vertex 96.32527923583984 -41.22518539428711 0
vertex 96.29454803466797 -41.03115463256836 0
endloop
endfacet
facet normal 0 0 1
outer loop
vertex 95.6442642211914 -38.3225212097168 0
vertex 65.82010650634766 -59.00717544555664 0
vertex 96.29454803466797 -41.03115463256836 0
endloop
endfacet
facet normal 0.556223893353879 0.831032478584473 0
outer loop
vertex 66.5117416381836 -25.750898361206055 -21.594287872314453
vertex 66.5117416381836 -25.750898361206055 0
vertex 68.73481750488281 -27.238840103149414 0
endloop
endfacet
facet normal -0.38268314231915185 0.9238796526521947 0
outer loop
vertex 71.57909393310547 -26.06070327758789 0
vertex 68.73481750488281 -27.238840103149414 -21.847675323486328
vertex 68.73481750488281 -27.238840103149414 0
endloop
endfacet
facet normal -0.3090096723230579 0.951058895342868 0
outer loop
vertex 71.57909393310547 -26.06070327758789 -21.89641571044922
vertex 71.57909393310547 -26.06070327758789 0
vertex 71.76593017578125 -25.999998092651367 0
endloop
endfacet
facet normal -0.2334454893971508 0.9723698902578817 0
outer loop
vertex 74.47456359863281 -25.349712371826172 0
vertex 71.76593017578125 -25.999998092651367 -21.90110969543457
vertex 71.76593017578125 -25.999998092651367 0
endloop
endfacet
facet normal -0.15643321152954195 0.9876885391309113 0
outer loop
vertex 74.47456359863281 -25.349712371826172 -21.989681243896484
vertex 74.47456359863281 -25.349712371826172 0
vertex 74.66859436035156 -25.318981170654297 0
endloop
endfacet
facet normal 0.9999987653510475 -0.001571399497490825 0
outer loop
vertex 66.5117416381836 -25.750898361206055 0
vertex 66.5117416381836 -25.750898361206055 -21.594287872314453
vertex 66.59049987792969 24.368846893310547 -17.11893081665039
endloop
endfacet
facet normal -0.07845962498012495 0.9969172920799289 0
outer loop
vertex 74.66859436035156 -25.318981170654297 -21.99744415283203
vertex 74.66859436035156 -25.318981170654297 0
vertex 77.44561004638672 -25.10042381286621 0
endloop
endfacet
facet normal 0 1 0
outer loop
vertex 77.44561004638672 -25.10042381286621 -22.128307342529297
vertex 77.44561004638672 -25.10042381286621 0
vertex 77.64205932617188 -25.10042381286621 0
endloop
endfacet
facet normal 0.07845962498012496 0.996917292079929 0
outer loop
vertex 77.64205932617188 -25.10042381286621 -22.138946533203125
vertex 77.64205932617188 -25.10042381286621 0
vertex 80.41907501220703 -25.318981170654297 0
endloop
endfacet
facet normal 0.15643321152954193 0.9876885391309113 0
outer loop
vertex 80.41907501220703 -25.318981170654297 -22.30887794494629
vertex 80.41907501220703 -25.318981170654297 0
vertex 80.61310577392578 -25.349712371826172 0
endloop
endfacet
facet normal 0.23344548939715073 0.9723698902578816 0
outer loop
vertex 80.61310577392578 -25.349712371826172 -22.322134017944336
vertex 80.61310577392578 -25.349712371826172 0
vertex 83.32173919677734 -25.999998092651367 0
endloop
endfacet
facet normal 0.30900967232305787 0.951058895342868 0
outer loop
vertex 83.32173919677734 -25.999998092651367 -22.526948928833008
vertex 83.32173919677734 -25.999998092651367 0
vertex 83.50857543945312 -26.06070327758789 0
endloop
endfacet
facet normal 0.3826832049310671 0.9238796267175107 0
outer loop
vertex 83.50857543945312 -26.06070327758789 -22.54249382019043
vertex 83.50857543945312 -26.06070327758789 0
vertex 86.08213806152344 -27.126707077026367 0
endloop
endfacet
facet normal 0.9723700456853624 0.23344484199451923 0
outer loop
vertex 95.6442642211914 -38.3225212097168 -24.29568099975586
vertex 95.6442642211914 -38.3225212097168 0
vertex 96.29454803466797 -41.03115463256836 0
endloop
endfacet
facet normal 0.9510560419555741 0.30901845423825 0
outer loop
vertex 95.58355712890625 -38.135684967041016 -24.275693893432617
vertex 95.58355712890625 -38.135684967041016 0
vertex 95.6442642211914 -38.3225212097168 0
endloop
endfacet
facet normal 0.9238796682527025 0.38268310465615846 0
outer loop
vertex 94.5175552368164 -35.56212615966797 -23.987939834594727
vertex 94.5175552368164 -35.56212615966797 0
vertex 95.58355712890625 -38.135684967041016 0
endloop
endfacet
facet normal 0.8526397081995876 0.5224993090917177 0
outer loop
vertex 92.97289276123047 -33.01197052001953 -23.676355361938477
vertex 92.97289276123047 -33.01197052001953 0
vertex 94.4283676147461 -35.3870849609375 0
endloop
endfacet
facet normal 0.8090164527561406 0.5877859977660844 0
outer loop
vertex 92.857421875 -32.8530387878418 -23.65589714050293
vertex 92.857421875 -32.8530387878418 0
vertex 92.97289276123047 -33.01197052001953 0
endloop
endfacet
facet normal 0.8910071900720901 0.4539891928667887 0
outer loop
vertex 94.4283676147461 -35.3870849609375 -23.967466354370117
vertex 94.4283676147461 -35.3870849609375 0
vertex 94.5175552368164 -35.56212615966797 0
endloop
endfacet
facet normal 0.5224983135197337 0.8526403182872799 0
outer loop
vertex 86.25717163085938 -27.21589469909668 -22.794601440429688
vertex 86.25717163085938 -27.21589469909668 0
vertex 88.63228607177734 -28.67136573791504 0
endloop
endfacet
facet normal 0.7071164902574746 0.7070970719823062 0
outer loop
vertex 90.90940856933594 -30.59593963623047 -23.348661422729492
vertex 90.90940856933594 -30.59593963623047 0
vertex 91.0483169555664 -30.734851837158203 0
endloop
endfacet
facet normal 0.587776764010319 0.809023161404887 0
outer loop
vertex 88.63228607177734 -28.67136573791504 -23.053321838378906
vertex 88.63228607177734 -28.67136573791504 0
vertex 88.79122161865234 -28.786836624145508 0
endloop
endfacet
facet normal 0.6494481415941276 0.760405885945088 0
outer loop
vertex 88.79122161865234 -28.786836624145508 -23.072248458862305
vertex 88.79122161865234 -28.786836624145508 0
vertex 90.90940856933594 -30.59593963623047 0
endloop
endfacet
facet normal 0.45400490267214055 0.8909991853810306 0
outer loop
vertex 86.08213806152344 -27.126707077026367 -22.777151107788086
vertex 86.08213806152344 -27.126707077026367 0
vertex 86.25717163085938 -27.21589469909668 0
endloop
endfacet
facet normal 0.7604055478015038 0.6494485375090893 0
outer loop
vertex 91.0483169555664 -30.734851837158203 -23.36859893798828
vertex 91.0483169555664 -30.734851837158203 0
vertex 92.857421875 -32.8530387878418 0
endloop
endfacet
facet normal 0 0 1
outer loop
vertex 66.5117416381836 -25.750898361206055 0
vertex 64.97895812988281 -58.69806671142578 0
vertex 68.73481750488281 -27.238840103149414 0
endloop
endfacet
facet normal 0 0 1
outer loop
vertex 71.57909393310547 -26.06070327758789 0
vertex 68.73481750488281 -27.238840103149414 0
vertex 64.97895812988281 -58.69806671142578 0
endloop
endfacet
facet normal 0 0 1
outer loop
vertex 71.76593017578125 -25.999998092651367 0
vertex 71.57909393310547 -26.06070327758789 0
vertex 64.97895812988281 -58.69806671142578 0
endloop
endfacet
facet normal 0 0 1
outer loop
vertex 74.47456359863281 -25.349712371826172 0
vertex 71.76593017578125 -25.999998092651367 0
vertex 64.97895812988281 -58.69806671142578 0
endloop
endfacet
facet normal 0 0 1
outer loop
vertex 74.66859436035156 -25.318981170654297 0
vertex 74.47456359863281 -25.349712371826172 0
vertex 64.97895812988281 -58.69806671142578 0
endloop
endfacet
facet normal 0 0 1
outer loop
vertex 77.44561004638672 -25.10042381286621 0
vertex 74.66859436035156 -25.318981170654297 0
vertex 64.97895812988281 -58.69806671142578 0
endloop
endfacet
facet normal 0 0 1
outer loop
vertex 77.64205932617188 -25.10042381286621 0
vertex 77.44561004638672 -25.10042381286621 0
vertex 64.97895812988281 -58.69806671142578 0
endloop
endfacet
facet normal 0 0 1
outer loop
vertex 80.41907501220703 -25.318981170654297 0
vertex 77.64205932617188 -25.10042381286621 0
vertex 64.97895812988281 -58.69806671142578 0
endloop
endfacet
facet normal 0 0 1
outer loop
vertex 80.61310577392578 -25.349712371826172 0
vertex 80.41907501220703 -25.318981170654297 0
vertex 64.97895812988281 -58.69806671142578 0
endloop
endfacet
facet normal 0 0 1
outer loop
vertex 83.32173919677734 -25.999998092651367 0
vertex 80.61310577392578 -25.349712371826172 0
vertex 64.97895812988281 -58.69806671142578 0
endloop
endfacet
facet normal 0 0 1
outer loop
vertex 83.50857543945312 -26.06070327758789 0
vertex 83.32173919677734 -25.999998092651367 0
vertex 64.97895812988281 -58.69806671142578 0
endloop
endfacet
facet normal 0 0 1
outer loop
vertex 86.08213806152344 -27.126707077026367 0
vertex 65.82010650634766 -59.00717544555664 0
vertex 86.25717163085938 -27.21589469909668 0
endloop
endfacet
facet normal 0 0 1
outer loop
vertex 86.25717163085938 -27.21589469909668 0
vertex 65.82010650634766 -59.00717544555664 0
vertex 88.63228607177734 -28.67136573791504 0
endloop
endfacet
facet normal 0 0 1
outer loop
vertex 86.08213806152344 -27.126707077026367 0
vertex 83.50857543945312 -26.06070327758789 0
vertex 64.97895812988281 -58.69806671142578 0
endloop
endfacet
facet normal 0 0 1
outer loop
vertex 88.63228607177734 -28.67136573791504 0
vertex 65.82010650634766 -59.00717544555664 0
vertex 88.79122161865234 -28.786836624145508 0
endloop
endfacet
facet normal 0 0 1
outer loop
vertex 88.79122161865234 -28.786836624145508 0
vertex 65.82010650634766 -59.00717544555664 0
vertex 90.90940856933594 -30.59593963623047 0
endloop
endfacet
facet normal -0.0538645192531202 0.08889465458422241 -0.9945835077820173
outer loop
vertex -54.828147888183594 39.42753219604492 -9.197210311889648
vertex 66.5117416381836 -25.750898361206055 -21.594287872314453
vertex 68.73481750488281 -27.238840103149414 -21.847675323486328
endloop
endfacet
facet normal -0.053864727197384284 0.08889428361435295 -0.994583529676941
outer loop
vertex -27.086763381958008 34.72457504272461 -11.119972229003906
vertex -2.244776487350464 34.72457504272461 -12.46536636352539
vertex 66.5117416381836 -25.750898361206055 -21.594287872314453
endloop
endfacet
facet normal -0.05386472967905363 0.08889428081040508 -0.9945835297931508
outer loop
vertex -2.244776487350464 34.72457504272461 -12.46536636352539
vertex 66.59049987792969 24.368846893310547 -17.11893081665039
vertex 66.5117416381836 -25.750898361206055 -21.594287872314453
endloop
endfacet
facet normal -0.053864733637957525 0.0888942554187669 -0.9945835318482078
outer loop
vertex -2.244776487350464 34.72457504272461 -12.46536636352539
vertex -0.7825893759727478 36.17597198486328 -12.41483211517334
vertex 66.59049987792969 24.368846893310547 -17.11893081665039
endloop
endfacet
facet normal -0.05386472659254393 0.08889429438531614 -0.9945835287470064
outer loop
vertex -0.7825893759727478 36.17597198486328 -12.41483211517334
vertex -0.6956280469894409 47.9171028137207 -11.370138168334961
vertex 66.59049987792969 24.368846893310547 -17.11893081665039
endloop
endfacet
facet normal -0.053864746051965784 0.08889424915035014 -0.9945835317361498
outer loop
vertex 2.957245111465454 51.348785400390625 -11.261252403259277
vertex 67.22225189208984 25.50096893310547 -17.051958084106445
vertex 66.59049987792969 24.368846893310547 -17.11893081665039
endloop
endfacet
facet normal -0.05386473029852155 0.08889428773639285 -0.9945835291405679
outer loop
vertex 2.957245111465454 51.348785400390625 -11.261252403259277
vertex 52.268775939941406 51.43238067626953 -13.924398422241211
vertex 67.22225189208984 25.50096893310547 -17.051958084106445
endloop
endfacet
facet normal -0.05386469873619132 0.08889431414050175 -0.9945835284899651
outer loop
vertex 65.82042694091797 54.59064865112305 -14.37604808807373
vertex 75.4042739868164 30.567155838012695 -17.042272567749023
vertex 67.22225189208984 25.50096893310547 -17.051958084106445
endloop
endfacet
facet normal -0.05386512592331934 0.08889414285140292 -0.9945835206637899
outer loop
vertex 65.82042694091797 54.59064865112305 -14.37604808807373
vertex 75.95343780517578 31.26983070373535 -17.00921058654785
vertex 75.4042739868164 30.567155838012695 -17.042272567749023
endloop
endfacet
facet normal -0.053864279170951684 0.08889451221981957 -0.9945835335086711
outer loop
vertex 65.82042694091797 54.59064865112305 -14.37604808807373
vertex 76.92057037353516 34.28527069091797 -16.792072296142578
vertex 75.95343780517578 31.26983070373535 -17.00921058654785
endloop
endfacet
facet normal -0.053864703534873895 0.08889430317814094 -0.9945835292098762
outer loop
vertex 52.268775939941406 51.43238067626953 -13.924398422241211
vertex 52.87572479248047 51.5880241394043 -13.943358421325684
vertex 67.22225189208984 25.50096893310547 -17.051958084106445
endloop
endfacet
facet normal -0.053864666250808324 0.08889432370444304 -0.9945835293944992
outer loop
vertex 52.87572479248047 51.5880241394043 -13.943358421325684
vertex 61.06596755981445 56.06624221801758 -13.986669540405273
vertex 67.22225189208984 25.50096893310547 -17.051958084106445
endloop
endfacet
facet normal -0.05386517960972124 0.08889421846170312 -0.9945835109982949
outer loop
vertex 61.06596755981445 56.06624221801758 -13.986669540405273
vertex 62.096797943115234 56.161399841308594 -14.033992767333984
vertex 67.22225189208984 25.50096893310547 -17.051958084106445
endloop
endfacet
facet normal -0.05386450094039287 0.08889433451069365 -0.9945835373815228
outer loop
vertex 62.096797943115234 56.161399841308594 -14.033992767333984
vertex 65.09940338134766 55.17879104614258 -14.284431457519531
vertex 67.22225189208984 25.50096893310547 -17.051958084106445
endloop
endfacet
facet normal -0.0538649291703137 0.08889430198784727 -0.9945835170962619
outer loop
vertex 65.09940338134766 55.17879104614258 -14.284431457519531
vertex 65.82042694091797 54.59064865112305 -14.37604808807373
vertex 67.22225189208984 25.50096893310547 -17.051958084106445
endloop
endfacet
facet normal -0.053865632088054775 0.08889377178979024 -0.9945835264153227
outer loop
vertex 65.82042694091797 54.59064865112305 -14.37604808807373
vertex 76.81132507324219 35.33083724975586 -16.692705154418945
vertex 76.92057037353516 34.28527069091797 -16.792072296142578
endloop
endfacet
facet normal 0 0 1
outer loop
vertex -2.244776487350464 34.72457504272461 0
vertex -27.086763381958008 34.72457504272461 0
vertex 66.5117416381836 -25.750898361206055 0
endloop
endfacet
facet normal 0 0 1
outer loop
vertex -2.244776487350464 34.72457504272461 0
vertex 66.5117416381836 -25.750898361206055 0
vertex 66.59049987792969 24.368846893310547 0
endloop
endfacet
facet normal -0.053864948331493946 0.08889367145506932 -0.9945835724143466
outer loop
vertex -0.6956280469894409 47.9171028137207 -11.370138168334961
vertex -0.26757535338401794 48.873870849609375 -11.307806968688965
vertex 66.59049987792969 24.368846893310547 -17.11893081665039
endloop
endfacet
facet normal -0.053864598576422375 0.08889461029932995 -0.9945835074441618
outer loop
vertex -0.26757535338401794 48.873870849609375 -11.307806968688965
vertex 2.0904839038848877 51.01333236694336 -11.244292259216309
vertex 66.59049987792969 24.368846893310547 -17.11893081665039
endloop
endfacet
facet normal -0.05386490002913748 0.08889389112605928 -0.9945835553965888
outer loop
vertex 2.0904839038848877 51.01333236694336 -11.244292259216309
vertex 2.957245111465454 51.348785400390625 -11.261252403259277
vertex 66.59049987792969 24.368846893310547 -17.11893081665039
endloop
endfacet
facet normal -0.001695245601868126 0.9999985630701422 0
outer loop
vertex 2.957245111465454 51.348785400390625 -11.261252403259277
vertex 52.268775939941406 51.43238067626953 0
vertex 52.268775939941406 51.43238067626953 -13.924398422241211
endloop
endfacet
facet normal -0.2483986395327417 0.9686578941392482 0
outer loop
vertex 52.268775939941406 51.43238067626953 -13.924398422241211
vertex 52.87572479248047 51.5880241394043 0
vertex 52.87572479248047 51.5880241394043 -13.943358421325684
endloop
endfacet
facet normal 0 0 1
outer loop
vertex -0.7825893759727478 36.17597198486328 0
vertex -2.244776487350464 34.72457504272461 0
vertex 66.59049987792969 24.368846893310547 0
endloop
endfacet
facet normal 0 0 1
outer loop
vertex -0.6956280469894409 47.9171028137207 0
vertex -0.7825893759727478 36.17597198486328 0
vertex 67.22225189208984 25.50096893310547 0
endloop
endfacet
facet normal -0.0016952456018681263 0.9999985630701423 0
outer loop
vertex 52.268775939941406 51.43238067626953 0
vertex 2.957245111465454 51.348785400390625 -11.261252403259277
vertex 2.957245111465454 51.348785400390625 0
endloop
endfacet
facet normal 0 0 1
outer loop
vertex -0.26757535338401794 48.873870849609375 0
vertex -0.6956280469894409 47.9171028137207 0
vertex 67.22225189208984 25.50096893310547 0
endloop
endfacet
facet normal 0 0 1
outer loop
vertex 2.0904839038848877 51.01333236694336 0
vertex -0.26757535338401794 48.873870849609375 0
vertex 67.22225189208984 25.50096893310547 0
endloop
endfacet
facet normal 0 0 1
outer loop
vertex 2.957245111465454 51.348785400390625 0
vertex 2.0904839038848877 51.01333236694336 0
vertex 67.22225189208984 25.50096893310547 0
endloop
endfacet
facet normal 0 0 1
outer loop
vertex 67.22225189208984 25.50096893310547 0
vertex -0.7825893759727478 36.17597198486328 0
vertex 66.59049987792969 24.368846893310547 0
endloop
endfacet
facet normal -0.2483986395327417 0.9686578941392482 0
outer loop
vertex 52.268775939941406 51.43238067626953 -13.924398422241211
vertex 52.268775939941406 51.43238067626953 0
vertex 52.87572479248047 51.5880241394043 0
endloop
endfacet
facet normal 0 0 1
outer loop
vertex 52.268775939941406 51.43238067626953 0
vertex 2.957245111465454 51.348785400390625 0
vertex 67.22225189208984 25.50096893310547 0
endloop
endfacet
facet normal 0.9999987653510474 -0.0015713994974908248 0
outer loop
vertex 66.5117416381836 -25.750898361206055 0
vertex 66.59049987792969 24.368846893310547 -17.11893081665039
vertex 66.59049987792969 24.368846893310547 0
endloop
endfacet
facet normal 0.8732403894475792 -0.4872896697421772 0
outer loop
vertex 67.22225189208984 25.50096893310547 -17.051958084106445
vertex 66.59049987792969 24.368846893310547 0
vertex 66.59049987792969 24.368846893310547 -17.11893081665039
endloop
endfacet
facet normal 0.5264391716252125 -0.8502127960567049 0
outer loop
vertex 75.4042739868164 30.567155838012695 -17.042272567749023
vertex 67.22225189208984 25.50096893310547 0
vertex 67.22225189208984 25.50096893310547 -17.051958084106445
endloop
endfacet
facet normal 0.8685287188788309 0.4956388448080887 0
outer loop
vertex 65.82042694091797 54.59064865112305 -14.37604808807373
vertex 76.81132507324219 35.33083724975586 0
vertex 76.81132507324219 35.33083724975586 -16.692705154418945
endloop
endfacet
facet normal -0.47974464182909204 0.8774081596590473 0
outer loop
vertex 52.87572479248047 51.5880241394043 -13.943358421325684
vertex 61.06596755981445 56.06624221801758 0
vertex 61.06596755981445 56.06624221801758 -13.986669540405273
endloop
endfacet
facet normal -0.0919208028719031 0.995766320980673 0
outer loop
vertex 61.06596755981445 56.06624221801758 -13.986669540405273
vertex 62.096797943115234 56.161399841308594 0
vertex 62.096797943115234 56.161399841308594 -14.033992767333984
endloop
endfacet
facet normal 0.31102131273888306 0.9504029371914745 0
outer loop
vertex 62.096797943115234 56.161399841308594 -14.033992767333984
vertex 65.09940338134766 55.17879104614258 0
vertex 65.09940338134766 55.17879104614258 -14.284431457519531
endloop
endfacet
facet normal 0.6320873420242575 0.7748971493383554 0
outer loop
vertex 65.09940338134766 55.17879104614258 -14.284431457519531
vertex 65.82042694091797 54.59064865112305 0
vertex 65.82042694091797 54.59064865112305 -14.37604808807373
endloop
endfacet
facet normal 0.7879160632824155 -0.6157826542064502 0
outer loop
vertex 75.95343780517578 31.26983070373535 -17.00921058654785
vertex 75.4042739868164 30.567155838012695 0
vertex 75.4042739868164 30.567155838012695 -17.042272567749023
endloop
endfacet
facet normal 0.9522230336539018 -0.3054034940516565 0
outer loop
vertex 76.92057037353516 34.28527069091797 -16.792072296142578
vertex 75.95343780517578 31.26983070373535 0
vertex 75.95343780517578 31.26983070373535 -17.00921058654785
endloop
endfacet
facet normal 0.9945858043507775 0.1039186113452111 0
outer loop
vertex 76.81132507324219 35.33083724975586 -16.692705154418945
vertex 76.92057037353516 34.28527069091797 0
vertex 76.92057037353516 34.28527069091797 -16.792072296142578
endloop
endfacet
facet normal 0.8732403894475793 -0.4872896697421772 0
outer loop
vertex 67.22225189208984 25.50096893310547 -17.051958084106445
vertex 67.22225189208984 25.50096893310547 0
vertex 66.59049987792969 24.368846893310547 0
endloop
endfacet
facet normal 0.5264391716252124 -0.8502127960567049 0
outer loop
vertex 67.22225189208984 25.50096893310547 0
vertex 75.4042739868164 30.567155838012695 -17.042272567749023
vertex 75.4042739868164 30.567155838012695 0
endloop
endfacet
facet normal 0 0 1
outer loop
vertex 67.22225189208984 25.50096893310547 0
vertex 75.4042739868164 30.567155838012695 0
vertex 65.82042694091797 54.59064865112305 0
endloop
endfacet
facet normal 0 0 1
outer loop
vertex 65.82042694091797 54.59064865112305 0
vertex 75.4042739868164 30.567155838012695 0
vertex 75.95343780517578 31.26983070373535 0
endloop
endfacet
facet normal 0 0 1
outer loop
vertex 65.82042694091797 54.59064865112305 0
vertex 75.95343780517578 31.26983070373535 0
vertex 76.92057037353516 34.28527069091797 0
endloop
endfacet
facet normal -0.479744641829092 0.8774081596590472 0
outer loop
vertex 61.06596755981445 56.06624221801758 0
vertex 52.87572479248047 51.5880241394043 -13.943358421325684
vertex 52.87572479248047 51.5880241394043 0
endloop
endfacet
facet normal -0.09192080287190312 0.9957663209806731 0
outer loop
vertex 61.06596755981445 56.06624221801758 -13.986669540405273
vertex 61.06596755981445 56.06624221801758 0
vertex 62.096797943115234 56.161399841308594 0
endloop
endfacet
facet normal 0.3110213127388831 0.9504029371914745 0
outer loop
vertex 62.096797943115234 56.161399841308594 -14.033992767333984
vertex 62.096797943115234 56.161399841308594 0
vertex 65.09940338134766 55.17879104614258 0
endloop
endfacet
facet normal 0.8685287188788309 0.49563884480808873 0
outer loop
vertex 76.81132507324219 35.33083724975586 0
vertex 65.82042694091797 54.59064865112305 -14.37604808807373
vertex 65.82042694091797 54.59064865112305 0
endloop
endfacet
facet normal 0.6320873420242574 0.7748971493383553 0
outer loop
vertex 65.09940338134766 55.17879104614258 -14.284431457519531
vertex 65.09940338134766 55.17879104614258 0
vertex 65.82042694091797 54.59064865112305 0
endloop
endfacet
facet normal 0 0 1
outer loop
vertex 52.87572479248047 51.5880241394043 0
vertex 52.268775939941406 51.43238067626953 0
vertex 67.22225189208984 25.50096893310547 0
endloop
endfacet
facet normal 0 0 1
outer loop
vertex 61.06596755981445 56.06624221801758 0
vertex 52.87572479248047 51.5880241394043 0
vertex 67.22225189208984 25.50096893310547 0
endloop
endfacet
facet normal 0 0 1
outer loop
vertex 62.096797943115234 56.161399841308594 0
vertex 61.06596755981445 56.06624221801758 0
vertex 67.22225189208984 25.50096893310547 0
endloop
endfacet
facet normal 0 0 1
outer loop
vertex 65.09940338134766 55.17879104614258 0
vertex 62.096797943115234 56.161399841308594 0
vertex 67.22225189208984 25.50096893310547 0
endloop
endfacet
facet normal 0 0 1
outer loop
vertex 65.82042694091797 54.59064865112305 0
vertex 65.09940338134766 55.17879104614258 0
vertex 67.22225189208984 25.50096893310547 0
endloop
endfacet
facet normal 0 0 1
outer loop
vertex 76.81132507324219 35.33083724975586 0
vertex 65.82042694091797 54.59064865112305 0
vertex 76.92057037353516 34.28527069091797 0
endloop
endfacet
facet normal 0.7879160632824155 -0.6157826542064502 0
outer loop
vertex 75.95343780517578 31.26983070373535 -17.00921058654785
vertex 75.95343780517578 31.26983070373535 0
vertex 75.4042739868164 30.567155838012695 0
endloop
endfacet
facet normal 0.9522230336539017 -0.3054034940516565 0
outer loop
vertex 76.92057037353516 34.28527069091797 -16.792072296142578
vertex 76.92057037353516 34.28527069091797 0
vertex 75.95343780517578 31.26983070373535 0
endloop
endfacet
facet normal 0.9945858043507774 0.10391861134521109 0
outer loop
vertex 76.81132507324219 35.33083724975586 -16.692705154418945
vertex 76.81132507324219 35.33083724975586 0
vertex 76.92057037353516 34.28527069091797 0
endloop
endfacet
endsolid auto-kdk-case
